/* XPM */
static char * mozicon16_xpm[] = {
"16 16 117 2",
"  	c None",
". 	c #DAA358",
"+ 	c #D4974B",
"@ 	c #E2B270",
"# 	c #F9DE9B",
"$ 	c #FEE098",
"% 	c #FBD27D",
"& 	c #F6C668",
"* 	c #F2BE5B",
"= 	c #E0A03F",
"- 	c #AE5414",
"; 	c #EBBA6D",
"> 	c #FFE39D",
", 	c #FAD483",
"' 	c #F3C062",
") 	c #F3C264",
"! 	c #EFB852",
"~ 	c #EAAD43",
"{ 	c #E4A033",
"] 	c #DB9123",
"^ 	c #9E3804",
"/ 	c #F2BD5A",
"( 	c #F7C86D",
"_ 	c #DABF88",
": 	c #D4BF9A",
"< 	c #D2BA91",
"[ 	c #CBA360",
"} 	c #FAD07D",
"| 	c #F1BC59",
"1 	c #E19B2D",
"2 	c #C16608",
"3 	c #DE972C",
"4 	c #DD9425",
"5 	c #D5A757",
"6 	c #EEDEBE",
"7 	c #F6E5CA",
"8 	c #F0D9B8",
"9 	c #EBD5B3",
"0 	c #D9B775",
"a 	c #EDB44C",
"b 	c #DE9526",
"c 	c #C36803",
"d 	c #A23A00",
"e 	c #D07D0D",
"f 	c #D28112",
"g 	c #C59D5B",
"h 	c #F2E3C6",
"i 	c #EAD3B3",
"j 	c #EBD5B6",
"k 	c #F0E3C9",
"l 	c #CDAF75",
"m 	c #EAAE45",
"n 	c #DE9626",
"o 	c #CC760A",
"p 	c #AF4A00",
"q 	c #BD5E00",
"r 	c #CB760C",
"s 	c #C38C35",
"t 	c #D1C1A8",
"u 	c #DFC8AA",
"v 	c #E2CEB1",
"w 	c #D9CBB2",
"x 	c #CB9D4B",
"y 	c #E5A438",
"z 	c #DB9120",
"A 	c #CC7609",
"B 	c #B65500",
"C 	c #B85600",
"D 	c #C66E06",
"E 	c #926D35",
"F 	c #8B7044",
"G 	c #A99474",
"H 	c #A78E6D",
"I 	c #B48137",
"J 	c #E6A438",
"K 	c #DF9829",
"L 	c #D68817",
"M 	c #CE7A09",
"N 	c #B14E00",
"O 	c #8E683A",
"P 	c #895F24",
"Q 	c #DC9221",
"R 	c #E09A2A",
"S 	c #E29C2D",
"T 	c #DE9727",
"U 	c #DC9223",
"V 	c #D58616",
"W 	c #D17F0F",
"X 	c #BA5C00",
"Y 	c #8F7061",
"Z 	c #895D25",
"` 	c #D48413",
" .	c #D98C1B",
"..	c #DC9322",
"+.	c #D58615",
"@.	c #C87003",
"#.	c #CA7204",
"$.	c #CB7404",
"%.	c #CB7506",
"&.	c #B75600",
"*.	c #60493E",
"=.	c #B65502",
"-.	c #D38313",
";.	c #DB8F1E",
">.	c #DB901F",
",.	c #D38211",
"'.	c #D58514",
").	c #C56D05",
"!.	c #672000",
"~.	c #C16807",
"{.	c #D88B1A",
"].	c #DD9424",
"^.	c #CE7D13",
"/.	c #A25208",
"(.	c #C97610",
"_.	c #D1841C",
":.	c #AC6312",
"                                ",
"              . +               ",
"        @ # $ % & * = -         ",
"      ; > , ' ) ! ~ { ] ^       ",
"      / ( _ : < [ } | 1 2       ",
"    3 4 5 6 7 8 9 0 a b c d     ",
"    e f g h i j k l m n o p     ",
"    q r s t u v w x y z A B     ",
"    C D E F G H I J K L M q     ",
"    N O P Q R S T U V W M X     ",
"    Y Z `  .z ..+.@.#.$.%.&.    ",
"    *.=.-. .;.>.L ,.'.,.).      ",
"      !.~.'.L {.].b z ^.        ",
"          /.(. .Q _.:.          ",
"                                ",
"                                "};
