/* XPM */
static char * mozicon50_xpm[] = {
"48 48 758 2",
"  	c None",
". 	c #A24E12",
"+ 	c #A75611",
"@ 	c #A75816",
"# 	c #A2500F",
"$ 	c #9D4810",
"% 	c #8D3511",
"& 	c #B9631A",
"* 	c #D69647",
"= 	c #E6AF59",
"- 	c #F6CB7A",
"; 	c #FAD484",
"> 	c #FCD685",
", 	c #FCD583",
"' 	c #FBD079",
") 	c #F9CA71",
"! 	c #F5C368",
"~ 	c #E7AB4B",
"{ 	c #CF893B",
"] 	c #B15E1B",
"^ 	c #812505",
"/ 	c #CF8736",
"( 	c #F0C26F",
"_ 	c #FFE7A0",
": 	c #FFECAE",
"< 	c #FFECAF",
"[ 	c #FFEAAB",
"} 	c #FFE5A1",
"| 	c #FFDF97",
"1 	c #FDD989",
"2 	c #FCD27D",
"3 	c #F9CD74",
"4 	c #F8CA6F",
"5 	c #F8CA6E",
"6 	c #F7C76B",
"7 	c #F6C461",
"8 	c #EBAF48",
"9 	c #C67623",
"0 	c #913007",
"a 	c #BF6E28",
"b 	c #EFC373",
"c 	c #FEECAE",
"d 	c #FFEEB4",
"e 	c #FFECB0",
"f 	c #FFE9A9",
"g 	c #FFE099",
"h 	c #FED98B",
"i 	c #FDD380",
"j 	c #FBCF77",
"k 	c #F8C96D",
"l 	c #F6C667",
"m 	c #F4C363",
"n 	c #F4C160",
"o 	c #F2BD5B",
"p 	c #F1BB56",
"q 	c #F0BB57",
"r 	c #F2BC59",
"s 	c #EFB851",
"t 	c #E4A138",
"u 	c #B25610",
"v 	c #7D1301",
"w 	c #D08F4B",
"x 	c #FBE4A2",
"y 	c #FFEDB3",
"z 	c #FFEBAE",
"A 	c #FFE7A5",
"B 	c #FED788",
"C 	c #F9CB71",
"D 	c #F8C86A",
"E 	c #F7C768",
"F 	c #F5C464",
"G 	c #F4C060",
"H 	c #F3BE5C",
"I 	c #F0BA55",
"J 	c #EEB64F",
"K 	c #EDB34B",
"L 	c #EBAF46",
"M 	c #EAAF45",
"N 	c #EBB047",
"O 	c #E5A336",
"P 	c #C06813",
"Q 	c #851A00",
"R 	c #DDA459",
"S 	c #FFECAD",
"T 	c #FFE7A6",
"U 	c #FCD380",
"V 	c #FACD75",
"W 	c #F6C465",
"X 	c #F6C668",
"Y 	c #F7C86B",
"Z 	c #F6C566",
"` 	c #F2BE5B",
" .	c #F0BA54",
"..	c #EDB64E",
"+.	c #ECB249",
"@.	c #E9AD43",
"#.	c #E8AA3E",
"$.	c #E6A538",
"%.	c #E4A133",
"&.	c #E5A437",
"*.	c #E29D2E",
"=.	c #C26910",
"-.	c #871A00",
";.	c #E5AB59",
">.	c #FEE59F",
",.	c #FFE49F",
"'.	c #FFE29C",
").	c #FFE39C",
"!.	c #FBD685",
"~.	c #F7C668",
"{.	c #F3C05E",
"].	c #F1BA56",
"^.	c #F2BD5A",
"/.	c #F3C05D",
"(.	c #F4C15F",
"_.	c #F3BF5D",
":.	c #EFB852",
"<.	c #EDB54D",
"[.	c #EBB046",
"}.	c #E9AC42",
"|.	c #E8A73C",
"1.	c #E5A337",
"2.	c #E29E31",
"3.	c #E19B2C",
"4.	c #DE9727",
"5.	c #DE9627",
"6.	c #DD9422",
"7.	c #B04F05",
"8.	c #881B00",
"9.	c #E8AD4E",
"0.	c #FDD787",
"a.	c #FFDE94",
"b.	c #FFDB8F",
"c.	c #FFDC8F",
"d.	c #FFDD91",
"e.	c #FEDE95",
"f.	c #F4C161",
"g.	c #EEB650",
"h.	c #EBB149",
"i.	c #EFBC60",
"j.	c #F1C471",
"k.	c #F1C168",
"l.	c #EFB955",
"m.	c #EDB44D",
"n.	c #EAAD44",
"o.	c #E8AA3F",
"p.	c #E8A83D",
"q.	c #E5A538",
"r.	c #DF9626",
"s.	c #DB901F",
"t.	c #D88C1B",
"u.	c #DA8E1D",
"v.	c #CF7C12",
"w.	c #A13800",
"x.	c #DE9B3A",
"y.	c #FCD17D",
"z.	c #FACE76",
"A.	c #FACE77",
"B.	c #FED687",
"C.	c #FFDA8C",
"D.	c #F4C468",
"E.	c #E3B971",
"F.	c #BAA37C",
"G.	c #9E8965",
"H.	c #967E57",
"I.	c #967F57",
"J.	c #9C8864",
"K.	c #B8A37E",
"L.	c #E4BD79",
"M.	c #EAAE48",
"N.	c #E6A539",
"O.	c #ECB34E",
"P.	c #FDD585",
"Q.	c #FCD27E",
"R.	c #F8CA6D",
"S.	c #EEB44C",
"T.	c #E7A73A",
"U.	c #E19C2D",
"V.	c #DD9423",
"W.	c #D68917",
"X.	c #B85702",
"Y.	c #9C3000",
"Z.	c #821500",
"`.	c #F1BB57",
" +	c #F2BD59",
".+	c #F7C86C",
"++	c #FCD78C",
"@+	c #CBBB9A",
"#+	c #A09171",
"$+	c #CBB07D",
"%+	c #E5C796",
"&+	c #EFD4A8",
"*+	c #F0D6AB",
"=+	c #E7C895",
"-+	c #C7A46A",
";+	c #95794A",
">+	c #B99F73",
",+	c #E2A748",
"'+	c #FBD585",
")+	c #FFD889",
"!+	c #FBCF79",
"~+	c #F7C769",
"{+	c #F1BD5A",
"]+	c #E7A73B",
"^+	c #E19D2E",
"/+	c #DB9120",
"(+	c #D58716",
"_+	c #C46A04",
":+	c #AC4600",
"<+	c #922600",
"[+	c #E6A73F",
"}+	c #EEB54E",
"|+	c #EAAE44",
"1+	c #E8A93D",
"2+	c #EEB54F",
"3+	c #F6C464",
"4+	c #F8CB73",
"5+	c #BEAE8F",
"6+	c #BBA677",
"7+	c #F8EAC9",
"8+	c #FBF3DF",
"9+	c #F8EED7",
"0+	c #F2DDBD",
"a+	c #F3DDBD",
"b+	c #F3DFBE",
"c+	c #F4DFBF",
"d+	c #EED2A6",
"e+	c #B0884B",
"f+	c #A4906E",
"g+	c #FADA95",
"h+	c #FDD481",
"i+	c #FACD74",
"j+	c #F5C364",
"k+	c #E0992A",
"l+	c #D48211",
"m+	c #C97103",
"n+	c #B95800",
"o+	c #A23900",
"p+	c #8B1E00",
"q+	c #C46F1A",
"r+	c #E39F31",
"s+	c #E29D2F",
"t+	c #E19B2D",
"u+	c #EFB854",
"v+	c #CBB180",
"w+	c #BBA06C",
"x+	c #F6E7C7",
"y+	c #F6E9D2",
"z+	c #F9EED7",
"A+	c #FBF0D9",
"B+	c #F1DCBC",
"C+	c #F1DBBA",
"D+	c #F0DAB9",
"E+	c #F0D6B0",
"F+	c #BB9C66",
"G+	c #BAA987",
"H+	c #FACF79",
"I+	c #F7C86A",
"J+	c #F2BF5C",
"K+	c #EDB54E",
"L+	c #E9AB40",
"M+	c #E4A033",
"N+	c #DE9625",
"O+	c #D68716",
"P+	c #C46B04",
"Q+	c #C26601",
"R+	c #BF6200",
"S+	c #AF4900",
"T+	c #972B00",
"U+	c #D18320",
"V+	c #E5A335",
"W+	c #DD9323",
"X+	c #D98C1B",
"Y+	c #E19C2E",
"Z+	c #E9AB3F",
"`+	c #E3AE51",
" @	c #A18C66",
".@	c #EED5A8",
"+@	c #F3E6CC",
"@@	c #F9EBD2",
"#@	c #FBEFD7",
"$@	c #FAEDD4",
"%@	c #F0D9B8",
"&@	c #EED7B7",
"*@	c #F6E5C6",
"=@	c #9E8E70",
"-@	c #E8C276",
";@	c #F5C465",
">@	c #DE9626",
",@	c #D58515",
"'@	c #C56C03",
")@	c #BE6100",
"!@	c #BC5D00",
"~@	c #B55200",
"{@	c #A03700",
"]@	c #8A1D00",
"^@	c #DA9022",
"/@	c #D68817",
"(@	c #D38211",
"_@	c #E5A235",
":@	c #C9A15B",
"<@	c #B79C69",
"[@	c #F1E1C3",
"}@	c #F7E9CD",
"|@	c #F8EAD0",
"1@	c #F9ECD4",
"2@	c #F2DFC0",
"3@	c #EED6B5",
"4@	c #EED7B6",
"5@	c #F0DDBE",
"6@	c #F6EAD3",
"7@	c #C6B798",
"8@	c #C0A46C",
"9@	c #F6C361",
"0@	c #F0BA56",
"a@	c #EDB34A",
"b@	c #DF9728",
"c@	c #D98D1C",
"d@	c #D38311",
"e@	c #C66D04",
"f@	c #BC5E00",
"g@	c #B75600",
"h@	c #A94100",
"i@	c #922500",
"j@	c #AF4D00",
"k@	c #D88B1A",
"l@	c #D48413",
"m@	c #CF7B0A",
"n@	c #D07D0C",
"o@	c #DE9726",
"p@	c #AF8E57",
"q@	c #C9AF82",
"r@	c #F5E4C8",
"s@	c #F5E6CA",
"t@	c #F6E8CC",
"u@	c #F2E0C2",
"v@	c #ECD4B4",
"w@	c #EBD4B4",
"x@	c #EBD4B3",
"y@	c #EBD5B4",
"z@	c #ECD5B5",
"A@	c #F3E1C4",
"B@	c #F4E7CF",
"C@	c #F2E6CD",
"D@	c #DDCFB5",
"E@	c #A28B5F",
"F@	c #F5C15D",
"G@	c #ECB148",
"H@	c #E8A93E",
"I@	c #E3A032",
"J@	c #CE7808",
"K@	c #BF6000",
"L@	c #B85800",
"M@	c #B04A00",
"N@	c #9A2E00",
"O@	c #AF4D01",
"P@	c #D38110",
"Q@	c #D17E0D",
"R@	c #CC7706",
"S@	c #C86F01",
"T@	c #CF7C0D",
"U@	c #E29D30",
"V@	c #A3834D",
"W@	c #D0BFA4",
"X@	c #F2E1C4",
"Y@	c #F2E3C7",
"Z@	c #F3E4C9",
"`@	c #EAD3B4",
" #	c #E9D1B1",
".#	c #EAD2B1",
"+#	c #EAD2B2",
"@#	c #EFDDBF",
"##	c #F3E7CE",
"$#	c #EFE2CA",
"%#	c #EFE2C9",
"&#	c #DDD0B7",
"*#	c #968056",
"=#	c #F4BE58",
"-#	c #EEB64E",
";#	c #EBAF45",
">#	c #E7A73C",
",#	c #E29E2F",
"'#	c #B95900",
")#	c #B35000",
"!#	c #8B1D00",
"~#	c #AF4C01",
"{#	c #CC7505",
"]#	c #CA7303",
"^#	c #C56B00",
"/#	c #C16600",
"(#	c #D38213",
"_#	c #DC9222",
":#	c #E29C2D",
"<#	c #A67E3E",
"[#	c #B6AC9C",
"}#	c #EFDEC0",
"|#	c #EFE0C3",
"1#	c #F0E0C5",
"2#	c #E8D0B1",
"3#	c #E7CFAE",
"4#	c #E7CFAF",
"5#	c #E7D0B0",
"6#	c #EDDEC4",
"7#	c #ECDEC5",
"8#	c #EDDFC6",
"9#	c #F0E1C7",
"0#	c #D1C3AB",
"a#	c #9B7E49",
"b#	c #F1BA52",
"c#	c #E9AC41",
"d#	c #DE9525",
"e#	c #C36701",
"f#	c #BA5A00",
"g#	c #B55100",
"h#	c #A63E00",
"i#	c #8F2200",
"j#	c #AC4800",
"k#	c #C46900",
"l#	c #C26600",
"m#	c #BF6300",
"n#	c #D17F0F",
"o#	c #C38B31",
"p#	c #898176",
"q#	c #E4D3B5",
"r#	c #E8D8BC",
"s#	c #EBDBBF",
"t#	c #E5CEB0",
"u#	c #E1C9AA",
"v#	c #E0C7A9",
"w#	c #E1CBAD",
"x#	c #EADCC3",
"y#	c #EEE0C5",
"z#	c #F1E1C6",
"A#	c #998F7C",
"B#	c #C19647",
"C#	c #EDB44C",
"D#	c #E7A83D",
"E#	c #E4A234",
"F#	c #E09A2B",
"G#	c #D38212",
"H#	c #CE7A09",
"I#	c #C06201",
"J#	c #BB5B00",
"K#	c #B75500",
"L#	c #902400",
"M#	c #A74000",
"N#	c #BC5C00",
"O#	c #BD5F00",
"P#	c #CA7308",
"Q#	c #D98E1C",
"R#	c #DD9A2E",
"S#	c #77613D",
"T#	c #C6B8A1",
"U#	c #E5D3B7",
"V#	c #E5D4B9",
"W#	c #E2CDB1",
"X#	c #DCC4A6",
"Y#	c #DDC5A6",
"Z#	c #DEC6A7",
"`#	c #E3CDB0",
" $	c #EADAC0",
".$	c #EADBC0",
"+$	c #EBDBC0",
"@$	c #D7C8AF",
"#$	c #736346",
"$$	c #E6AE49",
"%$	c #E6A438",
"&$	c #DC9221",
"*$	c #D68A18",
"=$	c #CE7908",
"-$	c #C26701",
";$	c #BD5D00",
">$	c #AA4400",
",$	c #A43A00",
"'$	c #BD5E00",
")$	c #BF6100",
"!$	c #C36902",
"~$	c #D78918",
"{$	c #DC9322",
"]$	c #E09B2B",
"^$	c #C48A2B",
"/$	c #635B4D",
"($	c #CBBCA6",
"_$	c #E2D0B4",
":$	c #E0CFB4",
"<$	c #DAC3A6",
"[$	c #D9C1A3",
"}$	c #DAC1A3",
"|$	c #DFCBAE",
"1$	c #E4D5BA",
"2$	c #E5D5BA",
"3$	c #D5C7AE",
"4$	c #70695F",
"5$	c #C1923E",
"6$	c #DD9424",
"7$	c #D17F0E",
"8$	c #CE7807",
"9$	c #CA7203",
"0$	c #C56A00",
"a$	c #AF4A00",
"b$	c #932700",
"c$	c #A23800",
"d$	c #B24E00",
"e$	c #C16501",
"f$	c #D48414",
"g$	c #DB8F1E",
"h$	c #DA9325",
"i$	c #977136",
"j$	c #5B5A58",
"k$	c #58534C",
"l$	c #A99F93",
"m$	c #D3C6B2",
"n$	c #DBC9AE",
"o$	c #D6BEA0",
"p$	c #D5BB9E",
"q$	c #DAC4A6",
"r$	c #D9CAB1",
"s$	c #B3A99B",
"t$	c #6A6154",
"u$	c #AE8337",
"v$	c #EAAD42",
"w$	c #E7A639",
"x$	c #D48514",
"y$	c #CC7404",
"z$	c #C76E01",
"A$	c #B14D00",
"B$	c #952900",
"C$	c #A03600",
"D$	c #B24D00",
"E$	c #BE5F00",
"F$	c #D28111",
"G$	c #D68A1A",
"H$	c #936E34",
"I$	c #555350",
"J$	c #3D3C3A",
"K$	c #90713E",
"L$	c #715B37",
"M$	c #69645E",
"N$	c #898683",
"O$	c #9C9898",
"P$	c #9B9898",
"Q$	c #8B8786",
"R$	c #6D6862",
"S$	c #6B4F2A",
"T$	c #BE852B",
"U$	c #E7A83E",
"V$	c #E7A83C",
"W$	c #DF9829",
"X$	c #DC9323",
"Y$	c #CD7605",
"Z$	c #942800",
"`$	c #9E3400",
" %	c #C76E04",
".%	c #D1800F",
"+%	c #8A6736",
"@%	c #5B5B5A",
"#%	c #313132",
"$%	c #8A6020",
"%%	c #E09A2C",
"&%	c #E09E31",
"*%	c #C28C33",
"=%	c #9A7435",
"-%	c #836535",
";%	c #846534",
">%	c #956825",
",%	c #AD6407",
"'%	c #C87102",
")%	c #CC7606",
"!%	c #E19D2F",
"~%	c #E4A235",
"{%	c #E3A031",
"]%	c #DC9424",
"^%	c #DA8F1E",
"/%	c #D78A18",
"(%	c #D58514",
"_%	c #D28110",
":%	c #D07E0D",
"<%	c #CF7A09",
"[%	c #9C3100",
"}%	c #B65400",
"|%	c #C36601",
"1%	c #C57307",
"2%	c #83643B",
"3%	c #646567",
"4%	c #34312E",
"5%	c #855918",
"6%	c #DE9322",
"7%	c #E09A2A",
"8%	c #E39F30",
"9%	c #E6A232",
"0%	c #E7A334",
"a%	c #E6A436",
"b%	c #D88D1D",
"c%	c #DC9223",
"d%	c #DE9728",
"e%	c #D78A19",
"f%	c #D38312",
"g%	c #D2800F",
"h%	c #CD7707",
"i%	c #C56C00",
"j%	c #C16400",
"k%	c #BA6904",
"l%	c #846844",
"m%	c #747474",
"n%	c #34322F",
"o%	c #845615",
"p%	c #D68818",
"q%	c #DA8D1C",
"r%	c #DF9727",
"s%	c #E09929",
"t%	c #E29C2E",
"u%	c #CE7B0A",
"v%	c #C46A00",
"w%	c #B04C00",
"x%	c #A13700",
"y%	c #AF5602",
"z%	c #846E55",
"A%	c #838282",
"B%	c #363637",
"C%	c #7F5110",
"D%	c #D28313",
"E%	c #DD9525",
"F%	c #DF9828",
"G%	c #DC9423",
"H%	c #CE7A0D",
"I%	c #D48312",
"J%	c #CC7506",
"K%	c #CC7607",
"L%	c #C36800",
"M%	c #BB5C00",
"N%	c #AA4500",
"O%	c #9D3100",
"P%	c #983E09",
"Q%	c #887668",
"R%	c #8F9090",
"S%	c #3D3C3B",
"T%	c #794C0E",
"U%	c #D4810F",
"V%	c #D68816",
"W%	c #D58616",
"X%	c #CF7B0E",
"Y%	c #CA7206",
"Z%	c #C36700",
"`%	c #C46800",
" &	c #CD780A",
".&	c #C66D00",
"+&	c #CB7405",
"@&	c #CD7807",
"#&	c #BB5A00",
"$&	c #A03B00",
"%&	c #94827B",
"&&	c #9B9B9B",
"*&	c #454340",
"=&	c #784A0D",
"-&	c #CF7C0C",
";&	c #DB9221",
">&	c #C76F01",
",&	c #C66C00",
"'&	c #C76E00",
")&	c #C87001",
"!&	c #C97101",
"~&	c #CC7605",
"{&	c #D07F0E",
"]&	c #CB7504",
"^&	c #B85500",
"/&	c #A3A3A4",
"(&	c #A7A7A7",
"_&	c #51504F",
":&	c #6B3406",
"<&	c #C87104",
"[&	c #DB8E1D",
"}&	c #D17E0E",
"|&	c #C97201",
"1&	c #CA7202",
"2&	c #CB7303",
"3&	c #CC7504",
"4&	c #808080",
"5&	c #AEAEAE",
"6&	c #605F5F",
"7&	c #632708",
"8&	c #AC4500",
"9&	c #D48615",
"0&	c #D38010",
"a&	c #CB7403",
"b&	c #CD7706",
"c&	c #CF7C0B",
"d&	c #CB7404",
"e&	c #C16500",
"f&	c #B95700",
"g&	c #494949",
"h&	c #201C1B",
"i&	c #8E2900",
"j&	c #A33A00",
"k&	c #B45100",
"l&	c #D78B19",
"m&	c #DB901E",
"n&	c #D38111",
"o&	c #C97104",
"p&	c #BE6000",
"q&	c #9C3A00",
"r&	c #962C00",
"s&	c #A53D00",
"t&	c #C36802",
"u&	c #CE7909",
"v&	c #D88C1A",
"w&	c #A14500",
"x&	c #952C00",
"y&	c #A94200",
"z&	c #D98E1D",
"A&	c #DE9526",
"B&	c #D88A19",
"C&	c #C87006",
"D&	c #A34400",
"E&	c #922900",
"F&	c #B14C01",
"G&	c #CB7506",
"H&	c #DD9524",
"I&	c #CE780B",
"J&	c #9C4100",
"K&	c #892600",
"L&	c #AE4A01",
"M&	c #CD7809",
"N&	c #D98C1A",
"O&	c #CA730D",
"P&	c #903500",
"Q&	c #6C1700",
"R&	c #9B3401",
"S&	c #C26708",
"T&	c #D58615",
"U&	c #DC901F",
"V&	c #D68517",
"W&	c #AE5207",
"X&	c #601800",
"Y&	c #781F00",
"Z&	c #A64302",
"`&	c #C16709",
" *	c #D07E0F",
".*	c #DB9121",
"+*	c #D28218",
"@*	c #B45A0C",
"#*	c #772802",
"$*	c #651500",
"%*	c #923401",
"&*	c #B45005",
"**	c #C56C0B",
"=*	c #D17F11",
"-*	c #DB911F",
";*	c #DE9423",
">*	c #CE7B16",
",*	c #BE610C",
"'*	c #984408",
")*	c #601B00",
"!*	c #681B00",
"~*	c #762900",
"{*	c #822E02",
"]*	c #7F2E03",
"^*	c #732602",
"/*	c #621600",
"                                                                                                ",
"                                                                                                ",
"                                                                                                ",
"                                                                                                ",
"                                          . + @ # $ %                                           ",
"                                  & * = - ; > , ' ) ! ~ { ] ^                                   ",
"                              / ( _ : < [ } | 1 2 3 4 5 6 7 8 9 0                               ",
"                          a b c d e f g h i j k l m n o p q r s t u v                           ",
"                        w x y : z A B i ' C D E F G H I J K L M N O P Q                         ",
"                      R S f T T A U V 4 W X Y Z n `  ...+.@.#.$.%.&.*.=.-.                      ",
"                    ;.>.,.'.).,.!.~.{.].^./.(._.r :.<.[.}.|.1.2.3.4.5.6.7.8.                    ",
"                  9.0.a.b.c.d.e.f.g.h.i.( j.k.l.m.+.n.o.p.o.q.*.r.s.t.u.v.w.8.                  ",
"                x.X y.z.A.i B.C.D.E.F.G.H.I.J.K.L.M.N.O.P.Q.R._.S.T.U.V.W.X.Y.Z.                ",
"                `. +{. .m..+' ++@+#+$+%+&+*+=+-+;+>+,+'+)+!+~+{++.]+^+/+(+_+:+<+                ",
"              [+}+|+[.1+2+3+4+5+6+7+8+9+0+a+b+c+d+e+f+g+h+i+j+I N &.k+u.l+m+n+o+p+              ",
"            q+}.p.r+s+t+}+u+v+w+x+y+z+A+B+C+C+C+D+E+F+G+H+I+J+K+L+M+N+O+P+Q+R+S+T+              ",
"            U+V+U.W+X+Y+Z+`+ @.@+@@@#@$@D+%@%@%@%@&@*@=@-@;@r m.L+M+>@,@'@)@!@~@{@]@            ",
"            ^@4./+/@(@U._@:@<@[@}@|@1@2@3@4@4@4@4@5@6@7@8@9@0@a@o.M+b@c@d@e@f@g@h@i@            ",
"          j@k@k@l@m@n@o@r+p@q@r@s@t@u@v@w@x@y@z@A@B@C@D@E@F@:.G@H@I@b@u.l@J@K@L@M@N@            ",
"          O@P@Q@R@S@T@W+U@V@W@X@Y@Z@`@ #.#+#+#@###$#%#&#*#=#-#;#>#,#>@c@l@m@Q+'#)#w.!#          ",
"          ~#{#]#^#/#(#_#:#<#[#}#|#1#2#3#4#4#5#6#7#8#9#0#a#b#+.c#$.*.d#c@l@m@e#f#g#h#i#          ",
"          j#k#l#)@m#n#s.k+o#p#q#r#s#t#u#u#v#w#x#6#y#z#A#B#C#|+D#E#F#W+t.G#H#I#J#K#h@L#          ",
"          M#J#N#O#R+P#Q#5.R#S#T#U#V#W#X#Y#Z#`# $.$+$@$#$$$L o.%$r+b@&$*$P@=$-$;$L@>$<+          ",
"          ,$~@J#'$)$!$~${$]$^$/$($_$:$<$[$}$|$1$2$3$4$5$;#o.N.I@3.6$u.O+7$8$9$0$N#a$b$          ",
"          c$d$f#'$)@e$f$g$h$i$j$k$l$m$n$o$p$q$r$s$t$u$v$o.w$E#*.b@/+k@x$n@8$y$z$'$A$B$          ",
"          C$D$n+;$E$e$F$G$H$I$J$K$L$M$N$O$P$Q$R$S$T$U$V$%$M+s+W$X$c@O+(@n@H#Y$S@O#d$Z$          ",
"          `$M@g@!@O# %.%+%@%#%$%%%&%*%=%-%;%>%,%'%)%!%~%{%U.W$]%^%/%(%_%:%<%8$z$E$)#Z$          ",
"          [%>$}%!@|%1%2%3%4%5%6%>@7%U.8%9%0%a%t+b%c%8%*.F#d%X$g$e%(+f%g%Q@m@h%i%O#)#i@          ",
"            h#~@j%k%l%m%n%o%p%q%/+6$r%s%3.U.s+*.t%]$7%r%d#/+O+e%/@x$g%n@7$u%{#v%!@w%            ",
"            x%M@y%z%A%B%C%D%/@t.u.s.{$E%>@r%F%b@r%E%G%&$g$H%v%f%x$I%J%K%:%m@]#L%M%N%            ",
"            O%P%Q%R%S%T%U%I%V%e%c@g$/+{$6$E%6$G%G%/+W%X%Y%Z%`% &n#K%.&+&Q@@&z$j%#&$&            ",
"              %&&&*&=&-&P@l@O+/%X+u.g$/+;&G%{${$&$(+>&.&,&i%,&'&>&)&!&~&{&]&,&)$^&              ",
"            /&(&_&:&<&Q@(@l@/@e%t.c@[&s./+/+/+;&s.}&!&)&!&|&1&2&3&~&R@H#Q@]&k#E$j@              ",
"          4&5&6&7&8&Q+H#f%9&/@e%t.c@[&g$g$s.s.g$g$0&a&a&~&b&=$H#c&m@n@7$n@d&e&f&                ",
"            g&h&i&j&k&3&7$9&/@l&X+u.g$g$m&s.s.g$^%e%m@<%.%O+e%l@_%n&f%f%n@o&p&q&                ",
"                  r&s&t&u&_%O+v&q%g$s.g$s.s.s.g$^%s.^%u./+&${$&$c@e%V%l+n@Q+w&                  ",
"                    x&y&+&c&(@V%k@c@q%z&z&u.s.s.;&{$G%d#>@>@A&;&u.B&O+I%C&D&                    ",
"                      E&F&G&Q@P@f%I%x$l@x$x$/@/+H&4.r%b@r%E%X$s.u.k@V%I&J&                      ",
"                        K&L&M&d@I%l@x$9&(%(+~$k@_#E%d#A&A&{$;&s.u.N&O&P&                        ",
"                          Q&R&S&f%T&T&(+/@k@X+u.^%{$6$G%G%{$/+U&V&W&X&                          ",
"                              Y&Z&`& *T&l&u.s.&$G%A&V.{${$.*+*@*#*                              ",
"                                  $*%*&***=*V%-*;*m&/%>*,*'*)*                                  ",
"                                          !*~*{*]*^*/*                                          ",
"                                                                                                ",
"                                                                                                ",
"                                                                                                ",
"                                                                                                ",
"                                                                                                "};
